# xmcd
#
# Track frame offsets:
#	150
#	9887
#	27492
#	46437
#	66450
#	83457
#	102465
#	124037
#	147512
#	163762
#	182555
#	210997
#	230777
#	249922
#	270367
#	291395
#
# Disc length: 4091 seconds
#
# Revision: 5
# Processed by: cddbd v1.5.2PL0 Copyright (c) Steve Scherf et al.
# Submitted via: audiograbber 1.83.01
#
DISCID=e00ff910
DTITLE=Sporty Thievz - Street Cinema
DYEAR=1999
DGENRE=Rap
TTITLE0=Sporty Thievz - Intro
TTITLE1=Sporty Thievz - The Spot
TTITLE2=Sporty Thievz - Fedz - Freeks Skit
TTITLE3=Sporty Thievz - Freeks - Slow Money Toney
TTITLE4=Sporty Thievz - Spy Hunter
TTITLE5=Sporty Thievz - Like father Like Son - C.E.O. Freestyle
TTITLE6=Sporty Thievz, Tragedy Kadafi - Raw Footage
TTITLE7=Sporty Thievz - Hitmen - Cheapskit
TTITLE8=Sporty Thievz - Cheapskate
TTITLE9=Sporty Thievz - Angel
TTITLE10=Sporty Thievz - Mac Dady - Aquaskit
TTITLE11=Sporty Thievz - Aquamen
TTITLE12=Sporty Thievz, Peter Gunz - Ready
TTITLE13=Sporty Thievz - Propose a Toast
TTITLE14=Sporty Thievz - Street Cinema
TTITLE15=Sporty Thievz - No Pigeons
EXTD=www.RapMusicGuide.com
EXTT0=
EXTT1=
EXTT2=
EXTT3=
EXTT4=
EXTT5=
EXTT6=
EXTT7=
EXTT8=
EXTT9=
EXTT10=
EXTT11=
EXTT12=
EXTT13=
EXTT14=
EXTT15=
PLAYORDER=
